# xmcd
#
# Track frame offsets: 
#        150
#        12225
#        28988
#        45174
#        58974
#        70723
#        88370
#        108464
#        121852
#        138876
#        152906
#        162881
#        175631
#
# Disc length: 2511 seconds
#
# Revision: 1
# Processed by: cddbd v1.5.2PL0 Copyright (c) Steve Scherf et al.
# Submitted via: ExactAudioCopyFreeDBPlugin 1.0
#
DISCID=a709cd0d
DTITLE=Billy Butler and Infinity - Hung Up On You
DYEAR=1973
DGENRE=Soul
TTITLE0=I'm So Hung Up On You
TTITLE1=I Don't Want To Lose You
TTITLE2=Whatever's Fair
TTITLE3=Storm
TTITLE4=Free Yourself
TTITLE5=Dip, Dip, I've Got My Hands Full
TTITLE6=(What Do You Do) When Your Baby's Gone
TTITLE7=You Keep Running Away
TTITLE8=Now You Know
TTITLE9=You Can't Always Tell
TTITLE10=Get On The Case
TTITLE11=Keep It To Yourself
TTITLE12=That Ain't Water, That's Pollution
EXTD=
EXTT0=
EXTT1=
EXTT2=
EXTT3=
EXTT4=
EXTT5=
EXTT6=
EXTT7=
EXTT8=
EXTT9=
EXTT10=
EXTT11=
EXTT12=
PLAYORDER=
